<svg width="24" height="25" viewBox="0 0 24 25" fill="none" xmlns="http://www.w3.org/2000/svg">
<g clip-path="url(#clip0_209_41)">
<path d="M14.828 9.67165C14.633 9.47665 14.316 9.47665 14.121 9.67165C13.926 9.86666 13.926 10.1847 14.121 10.3787C14.687 10.9447 15 11.6977 15 12.4997C15 14.1537 13.654 15.4997 12 15.4997C11.198 15.4997 10.445 15.1877 9.87902 14.6207C9.68402 14.4257 9.36701 14.4257 9.17201 14.6207C8.97701 14.8147 8.97701 15.1327 9.17201 15.3277C9.92599 16.0837 10.931 16.4997 12 16.4997C14.206 16.4997 16 14.7057 16 12.4997C16 11.4306 15.584 10.4256 14.828 9.67165Z" fill="#3C3A36"/>
<path d="M12.697 8.56863C12.47 8.52864 12.238 8.49963 12.0001 8.49963C9.79406 8.49963 8.00006 10.2936 8.00006 12.4996C8.00006 12.7376 8.02908 12.9696 8.07005 13.1966C8.11303 13.4386 8.32406 13.6096 8.56106 13.6096C8.59008 13.6096 8.61905 13.6076 8.64905 13.6016C8.92003 13.5536 9.10205 13.2936 9.05405 13.0226C9.02306 12.8526 9.00005 12.6796 9.00005 12.4996C9.00005 10.8456 10.3461 9.49961 12.0001 9.49961C12.1801 9.49961 12.3531 9.52262 12.523 9.55262C12.7891 9.60662 13.054 9.41861 13.102 9.14763C13.15 8.87664 12.9681 8.61663 12.697 8.56863Z" fill="#3C3A36"/>
<path d="M23.881 12.1766C23.768 12.0426 21.063 8.88564 17.332 6.95266C17.09 6.82568 16.785 6.92168 16.658 7.16768C16.531 7.41269 16.627 7.71466 16.873 7.84169C19.747 9.32969 22.043 11.6517 22.828 12.4997C21.636 13.7907 16.945 18.4997 12 18.4997C10.322 18.4997 8.63102 18.0947 6.97202 17.2947C6.72602 17.1737 6.42504 17.2787 6.30504 17.5277C6.18405 17.7757 6.28905 18.0747 6.53805 18.1947C8.33303 19.0617 10.171 19.4997 12.0001 19.4997C18.1611 19.4997 23.6511 13.0957 23.8821 12.8227C24.04 12.6366 24.039 12.3636 23.881 12.1766Z" fill="#3C3A36"/>
<path d="M15.281 6.07563C14.143 5.69262 13.039 5.49963 12 5.49963C5.83898 5.49963 0.348991 11.9036 0.117991 12.1766C-0.0280243 12.3486 -0.0400242 12.5986 0.0900068 12.7856C0.159007 12.8846 1.812 15.2316 4.677 17.1346C4.76198 17.1916 4.857 17.2186 4.953 17.2186C5.11401 17.2186 5.27301 17.1406 5.36901 16.9936C5.52201 16.7647 5.45901 16.4536 5.229 16.3016C3.12502 14.9026 1.68502 13.2136 1.146 12.5266C2.29702 11.2766 7.01901 6.49966 12 6.49966C12.931 6.49966 13.928 6.67568 14.962 7.02264C15.2239 7.11663 15.508 6.97164 15.595 6.70863C15.683 6.44665 15.543 6.16366 15.281 6.07563Z" fill="#3C3A36"/>
</g>
<defs>
<clipPath id="clip0_209_41">
<rect width="24" height="24" fill="white" transform="translate(0 0.5)"/>
</clipPath>
</defs>
</svg>
